<mxfile host="app.diagrams.net" modified="2023-07-21T10:27:55.368Z" agent="Mozilla/5.0 (Windows NT 10.0; Win64; x64) AppleWebKit/537.36 (KHTML, like Gecko) Chrome/114.0.0.0 Safari/537.36" etag="70HLhJJeWMN92-E2XifY" version="21.6.5" type="device">
  <diagram name="Page-1" id="yTkgI5dZYNvlA95zNqv1">
    <mxGraphModel dx="989" dy="527" grid="1" gridSize="10" guides="1" tooltips="1" connect="1" arrows="1" fold="1" page="1" pageScale="1" pageWidth="827" pageHeight="1169" math="0" shadow="0">
      <root>
        <mxCell id="0" />
        <mxCell id="1" parent="0" />
        <mxCell id="RGJpKEMwjfgQEgH2oKbF-1" value="" style="rounded=0;whiteSpace=wrap;html=1;" vertex="1" parent="1">
          <mxGeometry x="295" y="10" width="130" height="140" as="geometry" />
        </mxCell>
        <mxCell id="RGJpKEMwjfgQEgH2oKbF-2" value="stagiaires" style="text;html=1;strokeColor=none;fillColor=none;align=center;verticalAlign=middle;whiteSpace=wrap;rounded=0;fontSize=19;" vertex="1" parent="1">
          <mxGeometry x="295" y="10" width="130" height="30" as="geometry" />
        </mxCell>
        <mxCell id="RGJpKEMwjfgQEgH2oKbF-3" value="" style="endArrow=none;html=1;rounded=0;exitX=0;exitY=1;exitDx=0;exitDy=0;entryX=1;entryY=1;entryDx=0;entryDy=0;" edge="1" parent="1" source="RGJpKEMwjfgQEgH2oKbF-2" target="RGJpKEMwjfgQEgH2oKbF-2">
          <mxGeometry width="50" height="50" relative="1" as="geometry">
            <mxPoint x="515" y="120" as="sourcePoint" />
            <mxPoint x="565" y="70" as="targetPoint" />
          </mxGeometry>
        </mxCell>
        <mxCell id="RGJpKEMwjfgQEgH2oKbF-11" value="n°stagiaires" style="text;html=1;strokeColor=none;fillColor=none;align=left;verticalAlign=middle;whiteSpace=wrap;rounded=0;fontSize=19;" vertex="1" parent="1">
          <mxGeometry x="305" y="40" width="120" height="30" as="geometry" />
        </mxCell>
        <mxCell id="RGJpKEMwjfgQEgH2oKbF-12" value="first_name" style="text;html=1;strokeColor=none;fillColor=none;align=left;verticalAlign=middle;whiteSpace=wrap;rounded=0;fontSize=19;" vertex="1" parent="1">
          <mxGeometry x="305" y="70" width="120" height="30" as="geometry" />
        </mxCell>
        <mxCell id="RGJpKEMwjfgQEgH2oKbF-13" value="color_eye" style="text;html=1;strokeColor=none;fillColor=none;align=left;verticalAlign=middle;whiteSpace=wrap;rounded=0;fontSize=19;" vertex="1" parent="1">
          <mxGeometry x="305" y="95" width="120" height="30" as="geometry" />
        </mxCell>
        <mxCell id="RGJpKEMwjfgQEgH2oKbF-14" value="genre" style="text;html=1;strokeColor=none;fillColor=none;align=left;verticalAlign=middle;whiteSpace=wrap;rounded=0;fontSize=19;" vertex="1" parent="1">
          <mxGeometry x="305" y="120" width="120" height="30" as="geometry" />
        </mxCell>
        <mxCell id="RGJpKEMwjfgQEgH2oKbF-18" value="" style="rounded=0;whiteSpace=wrap;html=1;" vertex="1" parent="1">
          <mxGeometry x="300" y="485" width="130" height="125" as="geometry" />
        </mxCell>
        <mxCell id="RGJpKEMwjfgQEgH2oKbF-19" value="bonbon" style="text;html=1;strokeColor=none;fillColor=none;align=center;verticalAlign=middle;whiteSpace=wrap;rounded=0;fontSize=19;" vertex="1" parent="1">
          <mxGeometry x="300" y="485" width="130" height="30" as="geometry" />
        </mxCell>
        <mxCell id="RGJpKEMwjfgQEgH2oKbF-20" value="" style="endArrow=none;html=1;rounded=0;exitX=0;exitY=1;exitDx=0;exitDy=0;entryX=1;entryY=1;entryDx=0;entryDy=0;" edge="1" parent="1" source="RGJpKEMwjfgQEgH2oKbF-19" target="RGJpKEMwjfgQEgH2oKbF-19">
          <mxGeometry width="50" height="50" relative="1" as="geometry">
            <mxPoint x="520" y="595" as="sourcePoint" />
            <mxPoint x="570" y="545" as="targetPoint" />
          </mxGeometry>
        </mxCell>
        <mxCell id="RGJpKEMwjfgQEgH2oKbF-21" value="n°bonbon" style="text;html=1;strokeColor=none;fillColor=none;align=left;verticalAlign=middle;whiteSpace=wrap;rounded=0;fontSize=19;" vertex="1" parent="1">
          <mxGeometry x="310" y="515" width="120" height="30" as="geometry" />
        </mxCell>
        <mxCell id="RGJpKEMwjfgQEgH2oKbF-22" value="nam_bonbon" style="text;html=1;strokeColor=none;fillColor=none;align=left;verticalAlign=middle;whiteSpace=wrap;rounded=0;fontSize=19;" vertex="1" parent="1">
          <mxGeometry x="310" y="540" width="120" height="30" as="geometry" />
        </mxCell>
        <mxCell id="RGJpKEMwjfgQEgH2oKbF-42" value="" style="endArrow=classic;html=1;rounded=0;exitX=0.5;exitY=1;exitDx=0;exitDy=0;entryX=0.5;entryY=0;entryDx=0;entryDy=0;entryPerimeter=0;" edge="1" parent="1" source="RGJpKEMwjfgQEgH2oKbF-55" target="RGJpKEMwjfgQEgH2oKbF-19">
          <mxGeometry width="50" height="50" relative="1" as="geometry">
            <mxPoint x="389" y="389.9999999999999" as="sourcePoint" />
            <mxPoint x="391.07000000000016" y="459.90999999999997" as="targetPoint" />
          </mxGeometry>
        </mxCell>
        <mxCell id="RGJpKEMwjfgQEgH2oKbF-43" value="" style="endArrow=none;html=1;rounded=0;exitX=0.5;exitY=0;exitDx=0;exitDy=0;entryX=0.5;entryY=1;entryDx=0;entryDy=0;" edge="1" parent="1" source="RGJpKEMwjfgQEgH2oKbF-48" target="RGJpKEMwjfgQEgH2oKbF-14">
          <mxGeometry width="50" height="50" relative="1" as="geometry">
            <mxPoint x="419.74999999998545" y="180.75" as="sourcePoint" />
            <mxPoint x="380" y="160" as="targetPoint" />
          </mxGeometry>
        </mxCell>
        <mxCell id="RGJpKEMwjfgQEgH2oKbF-44" value="1,N" style="text;html=1;strokeColor=none;fillColor=none;align=center;verticalAlign=middle;whiteSpace=wrap;rounded=0;" vertex="1" parent="1">
          <mxGeometry x="348.5" y="170" width="60" height="30" as="geometry" />
        </mxCell>
        <mxCell id="RGJpKEMwjfgQEgH2oKbF-45" value="1,n" style="text;html=1;strokeColor=none;fillColor=none;align=center;verticalAlign=middle;whiteSpace=wrap;rounded=0;" vertex="1" parent="1">
          <mxGeometry x="346.5" y="430" width="60" height="30" as="geometry" />
        </mxCell>
        <mxCell id="RGJpKEMwjfgQEgH2oKbF-48" value="" style="rounded=1;whiteSpace=wrap;html=1;arcSize=50;" vertex="1" parent="1">
          <mxGeometry x="200" y="220" width="330" height="170" as="geometry" />
        </mxCell>
        <mxCell id="RGJpKEMwjfgQEgH2oKbF-49" value="" style="endArrow=none;html=1;rounded=0;entryX=0.007;entryY=0.395;entryDx=0;entryDy=0;entryPerimeter=0;exitX=0.998;exitY=0.383;exitDx=0;exitDy=0;exitPerimeter=0;" edge="1" parent="1" source="RGJpKEMwjfgQEgH2oKbF-48" target="RGJpKEMwjfgQEgH2oKbF-48">
          <mxGeometry width="50" height="50" relative="1" as="geometry">
            <mxPoint x="443.5" y="120" as="sourcePoint" />
            <mxPoint x="443.5" y="40" as="targetPoint" />
          </mxGeometry>
        </mxCell>
        <mxCell id="RGJpKEMwjfgQEgH2oKbF-50" value="bonbon_stagiaires" style="text;html=1;strokeColor=none;fillColor=none;align=center;verticalAlign=middle;whiteSpace=wrap;rounded=0;fontSize=26;" vertex="1" parent="1">
          <mxGeometry x="280" y="220" width="170" height="45" as="geometry" />
        </mxCell>
        <mxCell id="RGJpKEMwjfgQEgH2oKbF-53" value="qté_bonbon" style="text;html=1;strokeColor=none;fillColor=none;align=center;verticalAlign=middle;whiteSpace=wrap;rounded=0;fontSize=17;" vertex="1" parent="1">
          <mxGeometry x="230" y="282.5" width="270" height="45" as="geometry" />
        </mxCell>
        <mxCell id="RGJpKEMwjfgQEgH2oKbF-55" value="date_test" style="text;html=1;strokeColor=none;fillColor=none;align=center;verticalAlign=middle;whiteSpace=wrap;rounded=0;fontSize=21;" vertex="1" parent="1">
          <mxGeometry x="230" y="310" width="270" height="35" as="geometry" />
        </mxCell>
        <mxCell id="RGJpKEMwjfgQEgH2oKbF-62" value="saveur" style="text;html=1;strokeColor=none;fillColor=none;align=left;verticalAlign=middle;whiteSpace=wrap;rounded=0;fontSize=19;" vertex="1" parent="1">
          <mxGeometry x="310" y="570" width="120" height="30" as="geometry" />
        </mxCell>
        <mxCell id="RGJpKEMwjfgQEgH2oKbF-65" value="id_stagiaires" style="text;html=1;strokeColor=none;fillColor=none;align=center;verticalAlign=middle;whiteSpace=wrap;rounded=0;fontSize=21;" vertex="1" parent="1">
          <mxGeometry x="225" y="330" width="270" height="35" as="geometry" />
        </mxCell>
        <mxCell id="RGJpKEMwjfgQEgH2oKbF-66" value="id_sbonbon" style="text;html=1;strokeColor=none;fillColor=none;align=center;verticalAlign=middle;whiteSpace=wrap;rounded=0;fontSize=21;" vertex="1" parent="1">
          <mxGeometry x="225" y="355" width="270" height="35" as="geometry" />
        </mxCell>
      </root>
    </mxGraphModel>
  </diagram>
</mxfile>
